<?xml version="1.0" encoding="UTF-8" standalone="no"?>
<svg
   xmlns:dc="http://purl.org/dc/elements/1.1/"
   xmlns:cc="http://creativecommons.org/ns#"
   xmlns:rdf="http://www.w3.org/1999/02/22-rdf-syntax-ns#"
   xmlns:svg="http://www.w3.org/2000/svg"
   xmlns="http://www.w3.org/2000/svg"
   version="1.1"
   id="svg4253"
   viewBox="0 0 633 572.97637"
   height="161.70667mm"
   width="178.64667mm">
  <defs
     id="defs4255" />
  <metadata
     id="metadata4258">
    <rdf:RDF>
      <cc:Work
         rdf:about="">
        <dc:format>image/svg+xml</dc:format>
        <dc:type
           rdf:resource="http://purl.org/dc/dcmitype/StillImage" />
        <dc:title></dc:title>
      </cc:Work>
    </rdf:RDF>
  </metadata>
  <g
     transform="translate(-17.785715,-14.445443)"
     id="layer1">
    <path
       style="fill:#9fc5e8;fill-rule:nonzero;stroke:none;stroke-linecap:square;stroke-miterlimit:10"
       id="path11"
       d="m 18.785715,15.445443 136.000005,0 0,126.992137 -136.000005,0 z" />
    <path
       style="fill:none;fill-rule:nonzero;stroke:#000000;stroke-width:2;stroke-linecap:butt;stroke-linejoin:round;stroke-miterlimit:10"
       id="path13"
       d="m 18.785715,15.445443 136.000005,0 0,126.992137 -136.000005,0 z" />
    <path
       style="fill:#000000;fill-rule:nonzero;stroke:none;stroke-linecap:square;stroke-miterlimit:10"
       id="path15"
       d="m 57.285715,87.481507 0,-17.1875 6.46875,0 q 1.71875,0 2.625,0.171875 1.26562,0.203125 2.10937,0.796875 0.85938,0.59375 1.375,1.671875 0.53125,1.0625 0.53125,2.328125 0,2.203125 -1.40625,3.71875 -1.39062,1.515625 -5.03125,1.515625 l -4.40625,0 0,6.984375 -2.26562,0 z m 2.26562,-9.015625 4.4375,0 q 2.20313,0 3.125,-0.8125 0.9375,-0.828125 0.9375,-2.3125 0,-1.078125 -0.54687,-1.84375 -0.54688,-0.765625 -1.4375,-1.015625 -0.57813,-0.15625 -2.125,-0.15625 l -4.39063,0 0,6.140625 z m 12.67969,2.796875 q 0,-3.46875 1.92188,-5.125 1.60937,-1.390625 3.92187,-1.390625 2.5625,0 4.1875,1.6875 1.625,1.6875 1.625,4.640625 0,2.40625 -0.71875,3.78125 -0.71875,1.375 -2.09375,2.140625 -1.375,0.765625 -3,0.765625 -2.625,0 -4.23437,-1.671875 -1.60938,-1.6875 -1.60938,-4.828125 z m 2.17188,0 q 0,2.390625 1.03125,3.578125 1.04687,1.1875 2.64062,1.1875 1.5625,0 2.60938,-1.1875 1.04687,-1.203125 1.04687,-3.65625 0,-2.3125 -1.0625,-3.5 -1.04687,-1.1875 -2.59375,-1.1875 -1.59375,0 -2.64062,1.1875 -1.03125,1.1875 -1.03125,3.578125 z m 20.035151,6.21875 0,-1.578125 q -1.1875,1.859375 -3.48437,1.859375 -1.48438,0 -2.73438,-0.8125 -1.25,-0.828125 -1.9375,-2.296875 -0.671871,-1.46875 -0.671871,-3.390625 0,-1.859375 0.609371,-3.375 0.625,-1.515625 1.85938,-2.328125 1.25,-0.8125 2.78125,-0.8125 1.125,0 2,0.484375 0.89062,0.46875 1.4375,1.234375 l 0,-6.171875 2.09375,0 0,17.1875 -1.95313,0 z m -6.67187,-6.21875 q 0,2.390625 1,3.578125 1.01562,1.1875 2.39062,1.1875 1.39063,0 2.34375,-1.125 0.96875,-1.140625 0.96875,-3.453125 0,-2.5625 -0.98437,-3.75 -0.98438,-1.203125 -2.42188,-1.203125 -1.40625,0 -2.35937,1.15625 -0.9375,1.140625 -0.9375,3.609375 z m 25.968754,6.21875 -2.10938,0 0,-13.4375 q -0.75,0.71875 -2,1.453125 -1.23437,0.71875 -2.21875,1.078125 l 0,-2.03125 q 1.78125,-0.828125 3.09375,-2.015625 1.32813,-1.1875 1.875,-2.296875 l 1.35938,0 0,17.25 z" />
    <path
       style="fill:#9fc5e8;fill-rule:nonzero;stroke:none;stroke-linecap:square;stroke-miterlimit:10"
       id="path17"
       d="m 203.78572,15.445443 136,0 0,126.992137 -136,0 z" />
    <path
       style="fill:none;fill-rule:nonzero;stroke:#000000;stroke-width:2;stroke-linecap:butt;stroke-linejoin:round;stroke-miterlimit:10"
       id="path19"
       d="m 203.78572,15.445443 136,0 0,126.992137 -136,0 z" />
    <path
       style="fill:#000000;fill-rule:nonzero;stroke:none;stroke-linecap:square;stroke-miterlimit:10"
       id="path21"
       d="m 242.28572,87.481507 0,-17.1875 6.46875,0 q 1.71875,0 2.625,0.171875 1.26562,0.203125 2.10937,0.796875 0.85938,0.59375 1.375,1.671875 0.53125,1.0625 0.53125,2.328125 0,2.203125 -1.40625,3.71875 -1.39062,1.515625 -5.03125,1.515625 l -4.40625,0 0,6.984375 -2.26562,0 z m 2.26562,-9.015625 4.4375,0 q 2.20313,0 3.125,-0.8125 0.9375,-0.828125 0.9375,-2.3125 0,-1.078125 -0.54687,-1.84375 -0.54688,-0.765625 -1.4375,-1.015625 -0.57813,-0.15625 -2.125,-0.15625 l -4.39063,0 0,6.140625 z m 12.67969,2.796875 q 0,-3.46875 1.92188,-5.125 1.60937,-1.390625 3.92187,-1.390625 2.5625,0 4.1875,1.6875 1.625,1.6875 1.625,4.640625 0,2.40625 -0.71875,3.78125 -0.71875,1.375 -2.09375,2.140625 -1.375,0.765625 -3,0.765625 -2.625,0 -4.23437,-1.671875 -1.60938,-1.6875 -1.60938,-4.828125 z m 2.17188,0 q 0,2.390625 1.03125,3.578125 1.04687,1.1875 2.64062,1.1875 1.5625,0 2.60938,-1.1875 1.04687,-1.203125 1.04687,-3.65625 0,-2.3125 -1.0625,-3.5 -1.04687,-1.1875 -2.59375,-1.1875 -1.59375,0 -2.64062,1.1875 -1.03125,1.1875 -1.03125,3.578125 z m 20.03515,6.21875 0,-1.578125 q -1.1875,1.859375 -3.48437,1.859375 -1.48438,0 -2.73438,-0.8125 -1.25,-0.828125 -1.9375,-2.296875 -0.67187,-1.46875 -0.67187,-3.390625 0,-1.859375 0.60937,-3.375 0.625,-1.515625 1.85938,-2.328125 1.25,-0.8125 2.78125,-0.8125 1.125,0 2,0.484375 0.89062,0.46875 1.4375,1.234375 l 0,-6.171875 2.09375,0 0,17.1875 -1.95313,0 z m -6.67187,-6.21875 q 0,2.390625 1,3.578125 1.01562,1.1875 2.39062,1.1875 1.39063,0 2.34375,-1.125 0.96875,-1.140625 0.96875,-3.453125 0,-2.5625 -0.98437,-3.75 -0.98438,-1.203125 -2.42188,-1.203125 -1.40625,0 -2.35937,1.15625 -0.9375,1.140625 -0.9375,3.609375 z m 29.10937,4.1875 0,2.03125 -11.34375,0 q -0.0312,-0.765625 0.23438,-1.46875 0.4375,-1.15625 1.39062,-2.28125 0.95313,-1.125 2.76563,-2.609375 2.79687,-2.296875 3.78125,-3.625 0.98437,-1.34375 0.98437,-2.546875 0,-1.25 -0.90625,-2.109375 -0.89062,-0.859375 -2.32812,-0.859375 -1.51563,0 -2.4375,0.921875 -0.90625,0.90625 -0.92188,2.515625 l -2.17187,-0.21875 q 0.21875,-2.421875 1.67187,-3.6875 1.45313,-1.28125 3.90625,-1.28125 2.46875,0 3.90625,1.375 1.45313,1.359375 1.45313,3.390625 0,1.03125 -0.42188,2.03125 -0.42187,1 -1.40625,2.109375 -0.96875,1.09375 -3.25,3.015625 -1.89062,1.59375 -2.4375,2.15625 -0.53125,0.5625 -0.89062,1.140625 l 8.42187,0 z" />
    <path
       style="fill:#9fc5e8;fill-rule:nonzero;stroke:none;stroke-linecap:square;stroke-miterlimit:10"
       id="path23"
       d="m 513.78572,15.445443 136,0 0,126.992137 -136,0 z" />
    <path
       style="fill:none;fill-rule:nonzero;stroke:#000000;stroke-width:2;stroke-linecap:butt;stroke-linejoin:round;stroke-miterlimit:10"
       id="path25"
       d="m 513.78572,15.445443 136,0 0,126.992137 -136,0 z" />
    <path
       style="fill:#000000;fill-rule:nonzero;stroke:none;stroke-linecap:square;stroke-miterlimit:10"
       id="path27"
       d="m 550.29352,87.481507 0,-17.1875 6.46875,0 q 1.71875,0 2.625,0.171875 1.26562,0.203125 2.10937,0.796875 0.85938,0.59375 1.375,1.671875 0.53125,1.0625 0.53125,2.328125 0,2.203125 -1.40625,3.71875 -1.39062,1.515625 -5.03125,1.515625 l -4.40625,0 0,6.984375 -2.26562,0 z m 2.26562,-9.015625 4.4375,0 q 2.20313,0 3.125,-0.8125 0.9375,-0.828125 0.9375,-2.3125 0,-1.078125 -0.54687,-1.84375 -0.54688,-0.765625 -1.4375,-1.015625 -0.57813,-0.15625 -2.125,-0.15625 l -4.39063,0 0,6.140625 z m 12.67969,2.796875 q 0,-3.46875 1.92188,-5.125 1.60937,-1.390625 3.92187,-1.390625 2.5625,0 4.1875,1.6875 1.625,1.6875 1.625,4.640625 0,2.40625 -0.71875,3.78125 -0.71875,1.375 -2.09375,2.140625 -1.375,0.765625 -3,0.765625 -2.625,0 -4.23437,-1.671875 -1.60938,-1.6875 -1.60938,-4.828125 z m 2.17188,0 q 0,2.390625 1.03125,3.578125 1.04687,1.1875 2.64062,1.1875 1.5625,0 2.60938,-1.1875 1.04687,-1.203125 1.04687,-3.65625 0,-2.3125 -1.0625,-3.5 -1.04687,-1.1875 -2.59375,-1.1875 -1.59375,0 -2.64062,1.1875 -1.03125,1.1875 -1.03125,3.578125 z m 20.03515,6.21875 0,-1.578125 q -1.1875,1.859375 -3.48437,1.859375 -1.48438,0 -2.73438,-0.8125 -1.25,-0.828125 -1.9375,-2.296875 -0.67187,-1.46875 -0.67187,-3.390625 0,-1.859375 0.60937,-3.375 0.625,-1.515625 1.85938,-2.328125 1.25,-0.8125 2.78125,-0.8125 1.125,0 2,0.484375 0.89062,0.46875 1.4375,1.234375 l 0,-6.171875 2.09375,0 0,17.1875 -1.95313,0 z m -6.67187,-6.21875 q 0,2.390625 1,3.578125 1.01562,1.1875 2.39062,1.1875 1.39063,0 2.34375,-1.125 0.96875,-1.140625 0.96875,-3.453125 0,-2.5625 -0.98437,-3.75 -0.98438,-1.203125 -2.42188,-1.203125 -1.40625,0 -2.35937,1.15625 -0.9375,1.140625 -0.9375,3.609375 z m 18.85937,6.21875 0,-17.1875 2.32813,0 9.03125,13.5 0,-13.5 2.17187,0 0,17.1875 -2.32812,0 -9.01563,-13.5 0,13.5 -2.1875,0 z" />
    <path
       style="fill:#f9cb9c;fill-rule:nonzero;stroke:none;stroke-linecap:square;stroke-miterlimit:10"
       id="path29"
       d="m 223.78572,217.44545 257.00787,0 0,158.99213 -257.00787,0 z" />
    <path
       style="fill:none;fill-rule:nonzero;stroke:#000000;stroke-width:2;stroke-linecap:butt;stroke-linejoin:round;stroke-miterlimit:10"
       id="path31"
       d="m 223.78572,217.44545 257.00787,0 0,158.99213 -257.00787,0 z" />
    <path
       style="fill:#000000;fill-rule:nonzero;stroke:none;stroke-linecap:square;stroke-miterlimit:10"
       id="path33"
       d="m 262.81502,278.48545 0,-17.1875 7.60938,0 q 2.29687,0 3.48437,0.46875 1.20313,0.46875 1.92188,1.64063 0.71875,1.17187 0.71875,2.57812 0,1.82813 -1.1875,3.09375 -1.1875,1.25 -3.65625,1.59375 0.90625,0.42188 1.375,0.84375 1,0.92188 1.89062,2.29688 l 2.98438,4.67187 -2.85938,0 -2.28125,-3.57812 q -0.98437,-1.54688 -1.64062,-2.35938 -0.64063,-0.82812 -1.15625,-1.15625 -0.5,-0.32812 -1.03125,-0.45312 -0.39063,-0.0781 -1.26563,-0.0781 l -2.64062,0 0,7.625 -2.26563,0 z m 2.26563,-9.59375 4.89062,0 q 1.5625,0 2.4375,-0.32812 0.875,-0.32813 1.32813,-1.03125 0.46875,-0.70313 0.46875,-1.54688 0,-1.21875 -0.89063,-2 -0.875,-0.78125 -2.79687,-0.78125 l -5.4375,0 0,5.6875 z m 27.28515,3.5625 2.28125,0.57813 q -0.71875,2.79687 -2.57812,4.28125 -1.85938,1.46875 -4.54688,1.46875 -2.76562,0 -4.51562,-1.125 -1.73438,-1.14063 -2.64063,-3.28125 -0.90625,-2.15625 -0.90625,-4.60938 0,-2.6875 1.01563,-4.6875 1.03125,-2 2.92187,-3.03125 1.89063,-1.03125 4.17188,-1.03125 2.57812,0 4.32812,1.3125 1.76563,1.3125 2.45313,3.6875 l -2.23438,0.53125 q -0.60937,-1.875 -1.75,-2.73437 -1.125,-0.85938 -2.84375,-0.85938 -1.98437,0 -3.3125,0.95313 -1.32812,0.95312 -1.875,2.54687 -0.53125,1.59375 -0.53125,3.29688 0,2.1875 0.625,3.82812 0.64063,1.64063 1.98438,2.45313 1.35937,0.79687 2.92187,0.79687 1.92188,0 3.23438,-1.09375 1.32812,-1.10937 1.79687,-3.28125 z m 9.89063,6.32813 4.98437,-17.76563 1.6875,0 -4.96875,17.76563 -1.70312,0 z m 15.19531,-0.29688 0,-17.1875 5.90625,0 q 2.01562,0 3.0625,0.25 1.48437,0.34375 2.51562,1.23438 1.35938,1.14062 2.03125,2.9375 0.6875,1.78125 0.6875,4.07812 0,1.95313 -0.46875,3.46875 -0.45312,1.51563 -1.17187,2.51563 -0.70313,0.98437 -1.5625,1.54687 -0.84375,0.5625 -2.04688,0.85938 -1.20312,0.29687 -2.76562,0.29687 l -6.1875,0 z m 2.26562,-2.03125 3.67188,0 q 1.70312,0 2.65625,-0.3125 0.96875,-0.3125 1.54687,-0.89062 0.8125,-0.8125 1.26563,-2.17188 0.45312,-1.375 0.45312,-3.3125 0,-2.70312 -0.89062,-4.14062 -0.89063,-1.45313 -2.15625,-1.9375 -0.90625,-0.35938 -2.9375,-0.35938 l -3.60938,0 0,13.125 z m 23.31641,-1.98437 2.17187,0.28125 q -0.51562,1.90625 -1.90625,2.96875 -1.39062,1.04687 -3.5625,1.04687 -2.73437,0 -4.34375,-1.67187 -1.59375,-1.6875 -1.59375,-4.73438 0,-3.14062 1.60938,-4.875 1.625,-1.73437 4.20312,-1.73437 2.5,0 4.07813,1.70312 1.59375,1.70313 1.59375,4.78125 0,0.1875 -0.0156,0.5625 l -9.28125,0 q 0.10938,2.04688 1.15625,3.14063 1.04688,1.09375 2.60938,1.09375 1.15625,0 1.96875,-0.60938 0.82812,-0.60937 1.3125,-1.95312 z m -6.9375,-3.40625 6.95312,0 q -0.14062,-1.5625 -0.79687,-2.35938 -1,-1.21875 -2.60938,-1.21875 -1.45312,0 -2.45312,0.98438 -0.98438,0.96875 -1.09375,2.59375 z m 11.75391,12.1875 0,-17.21875 1.92187,0 0,1.625 q 0.6875,-0.95313 1.53125,-1.42188 0.85938,-0.48437 2.07813,-0.48437 1.59375,0 2.8125,0.82812 1.21875,0.8125 1.84375,2.3125 0.625,1.5 0.625,3.28125 0,1.90625 -0.6875,3.4375 -0.6875,1.53125 -2,2.34375 -1.29688,0.8125 -2.73438,0.8125 -1.0625,0 -1.90625,-0.4375 -0.82812,-0.45312 -1.375,-1.14062 l 0,6.0625 -2.10937,0 z m 1.92187,-10.92188 q 0,2.40625 0.96875,3.5625 0.96875,1.14063 2.35938,1.14063 1.40625,0 2.40625,-1.1875 1,-1.1875 1,-3.6875 0,-2.375 -0.98438,-3.5625 -0.96875,-1.1875 -2.32812,-1.1875 -1.35938,0 -2.39063,1.26562 -1.03125,1.25 -1.03125,3.65625 z m 11.37891,6.15625 0,-17.1875 2.10937,0 0,17.1875 -2.10937,0 z m 4.59765,-6.21875 q 0,-3.46875 1.92188,-5.125 1.60937,-1.39062 3.92187,-1.39062 2.5625,0 4.1875,1.6875 1.625,1.6875 1.625,4.64062 0,2.40625 -0.71875,3.78125 -0.71875,1.375 -2.09375,2.14063 -1.375,0.76562 -3,0.76562 -2.625,0 -4.23437,-1.67187 -1.60938,-1.6875 -1.60938,-4.82813 z m 2.17188,0 q 0,2.39063 1.03125,3.57813 1.04687,1.1875 2.64062,1.1875 1.5625,0 2.60938,-1.1875 1.04687,-1.20313 1.04687,-3.65625 0,-2.3125 -1.0625,-3.5 -1.04687,-1.1875 -2.59375,-1.1875 -1.59375,0 -2.64062,1.1875 -1.03125,1.1875 -1.03125,3.57812 z m 11.86328,11.01563 -0.23438,-1.98438 q 0.70313,0.1875 1.21875,0.1875 0.70313,0 1.125,-0.23437 0.42188,-0.23438 0.6875,-0.65625 0.20313,-0.3125 0.64063,-1.5625 0.0625,-0.1875 0.1875,-0.51563 l -4.71875,-12.48437 2.26562,0 2.59375,7.21875 q 0.5,1.35937 0.90625,2.875 0.35938,-1.45313 0.85938,-2.82813 l 2.67187,-7.26562 2.10938,0 -4.73438,12.67187 q -0.76562,2.04688 -1.1875,2.8125 -0.5625,1.04688 -1.29687,1.53125 -0.71875,0.48438 -1.73438,0.48438 -0.60937,0 -1.35937,-0.25 z m 12.09375,-4.79688 0,-12.45312 1.89062,0 0,1.75 q 0.59375,-0.90625 1.5625,-1.46875 0.96875,-0.5625 2.21875,-0.5625 1.375,0 2.25,0.57812 0.89063,0.57813 1.26563,1.60938 1.46875,-2.1875 3.84375,-2.1875 1.84375,0 2.84375,1.03125 1,1.03125 1,3.15625 l 0,8.54687 -2.10938,0 0,-7.84375 q 0,-1.26562 -0.20312,-1.8125 -0.20313,-0.5625 -0.75,-0.90625 -0.53125,-0.34375 -1.25,-0.34375 -1.3125,0 -2.1875,0.875 -0.85938,0.875 -0.85938,2.79688 l 0,7.23437 -2.10937,0 0,-8.09375 q 0,-1.40625 -0.51563,-2.10937 -0.51562,-0.70313 -1.6875,-0.70313 -0.89062,0 -1.65625,0.46875 -0.75,0.46875 -1.09375,1.375 -0.34375,0.90625 -0.34375,2.60938 l 0,6.45312 -2.10937,0 z m 28.52344,-4.01562 2.17187,0.28125 q -0.51562,1.90625 -1.90625,2.96875 -1.39062,1.04687 -3.5625,1.04687 -2.73437,0 -4.34375,-1.67187 -1.59375,-1.6875 -1.59375,-4.73438 0,-3.14062 1.60938,-4.875 1.625,-1.73437 4.20312,-1.73437 2.5,0 4.07813,1.70312 1.59375,1.70313 1.59375,4.78125 0,0.1875 -0.0156,0.5625 l -9.28125,0 q 0.10938,2.04688 1.15625,3.14063 1.04688,1.09375 2.60938,1.09375 1.15625,0 1.96875,-0.60938 0.82812,-0.60937 1.3125,-1.95312 z m -6.9375,-3.40625 6.95312,0 q -0.14062,-1.5625 -0.79687,-2.35938 -1,-1.21875 -2.60938,-1.21875 -1.45312,0 -2.45312,0.98438 -0.98438,0.96875 -1.09375,2.59375 z m 11.7539,7.42187 0,-12.45312 1.90625,0 0,1.78125 q 1.375,-2.0625 3.95313,-2.0625 1.125,0 2.0625,0.40625 0.95312,0.40625 1.42187,1.0625 0.46875,0.65625 0.65625,1.5625 0.125,0.57812 0.125,2.04687 l 0,7.65625 -2.10937,0 0,-7.57812 q 0,-1.28125 -0.25,-1.92188 -0.25,-0.64062 -0.875,-1.01562 -0.625,-0.39063 -1.46875,-0.39063 -1.34375,0 -2.32813,0.85938 -0.98437,0.85937 -0.98437,3.25 l 0,6.79687 -2.10938,0 z m 17.95703,-1.89062 0.3125,1.85937 q -0.89062,0.20313 -1.59375,0.20313 -1.15625,0 -1.79687,-0.35938 -0.625,-0.375 -0.89063,-0.96875 -0.25,-0.59375 -0.25,-2.48437 l 0,-7.17188 -1.54687,0 0,-1.64062 1.54687,0 0,-3.07813 2.09375,-1.26562 0,4.34375 2.125,0 0,1.64062 -2.125,0 0,7.28125 q 0,0.90625 0.10938,1.17188 0.125,0.25 0.375,0.40625 0.25,0.14062 0.71875,0.14062 0.34375,0 0.92187,-0.0781 z" />
    <path
       style="fill:#b6d7a8;fill-rule:nonzero;stroke:none;stroke-linecap:square;stroke-miterlimit:10"
       id="path35"
       d="m 279.28175,305.44545 146.01581,0 0,50.99213 -146.01581,0 z" />
    <path
       style="fill:none;fill-rule:nonzero;stroke:#000000;stroke-width:2;stroke-linecap:butt;stroke-linejoin:round;stroke-miterlimit:10"
       id="path37"
       d="m 279.28175,305.44545 146.01581,0 0,50.99213 -146.01581,0 z" />
    <path
       style="fill:#000000;fill-rule:nonzero;stroke:none;stroke-linecap:square;stroke-miterlimit:10"
       id="path39"
       d="m 323.35017,333.9659 2.14062,-0.1875 q 0.15625,1.28125 0.70313,2.10937 0.5625,0.82813 1.73437,1.34375 1.17188,0.5 2.64063,0.5 1.29687,0 2.29687,-0.375 1,-0.39062 1.48438,-1.0625 0.48437,-0.6875 0.48437,-1.48437 0,-0.79688 -0.46875,-1.40625 -0.46875,-0.60938 -1.54687,-1.01563 -0.6875,-0.26562 -3.0625,-0.82812 -2.35938,-0.57813 -3.3125,-1.07813 -1.23438,-0.64062 -1.84375,-1.59375 -0.59375,-0.96875 -0.59375,-2.14062 0,-1.3125 0.73437,-2.4375 0.75,-1.125 2.15625,-1.70313 1.42188,-0.59375 3.15625,-0.59375 1.90625,0 3.35938,0.60938 1.46875,0.60937 2.25,1.8125 0.79687,1.1875 0.84375,2.70312 l -2.17188,0.17188 q -0.17187,-1.64063 -1.1875,-2.46875 -1.01562,-0.82813 -3,-0.82813 -2.0625,0 -3.01562,0.76563 -0.9375,0.75 -0.9375,1.8125 0,0.92187 0.67187,1.51562 0.65625,0.60938 3.42188,1.23438 2.78125,0.625 3.8125,1.09375 1.5,0.6875 2.20312,1.75 0.71875,1.0625 0.71875,2.4375 0,1.375 -0.78125,2.59375 -0.78125,1.20312 -2.25,1.89062 -1.46875,0.67188 -3.3125,0.67188 -2.32812,0 -3.90625,-0.67188 -1.57812,-0.6875 -2.48437,-2.04687 -0.89063,-1.375 -0.9375,-3.09375 z m 24.63281,0.95312 2.07813,0.26563 q -0.34375,2.15625 -1.75,3.375 -1.39063,1.20312 -3.4375,1.20312 -2.54688,0 -4.10938,-1.67187 -1.54687,-1.67188 -1.54687,-4.78125 0,-2.01563 0.67187,-3.53125 0.67188,-1.51563 2.03125,-2.26563 1.35938,-0.76562 2.96875,-0.76562 2.03125,0 3.3125,1.03125 1.29688,1.03125 1.65625,2.90625 l -2.04687,0.32812 q -0.29688,-1.26562 -1.04688,-1.89062 -0.73437,-0.64063 -1.79687,-0.64063 -1.59375,0 -2.59375,1.15625 -0.98438,1.14063 -0.98438,3.60938 0,2.5 0.95313,3.64062 0.96875,1.14063 2.51562,1.14063 1.23438,0 2.0625,-0.76563 0.84375,-0.76562 1.0625,-2.34375 z m 12,3.03125 q -1.17187,0.98438 -2.26562,1.40625 -1.07813,0.40625 -2.3125,0.40625 -2.04688,0 -3.15625,-1 -1.09375,-1 -1.09375,-2.5625 0,-0.92187 0.40625,-1.67187 0.42187,-0.75 1.09375,-1.20313 0.67187,-0.46875 1.51562,-0.70312 0.625,-0.15625 1.875,-0.3125 2.5625,-0.3125 3.76563,-0.73438 0.0156,-0.42187 0.0156,-0.54687 0,-1.28125 -0.60937,-1.8125 -0.79688,-0.71875 -2.39063,-0.71875 -1.5,0 -2.20312,0.53125 -0.70313,0.51562 -1.04688,1.84375 l -2.0625,-0.28125 q 0.28125,-1.32813 0.92188,-2.14063 0.64062,-0.8125 1.85937,-1.25 1.21875,-0.45312 2.82813,-0.45312 1.59375,0 2.59375,0.375 1,0.375 1.46875,0.95312 0.46875,0.5625 0.65625,1.4375 0.0937,0.53125 0.0937,1.9375 l 0,2.8125 q 0,2.9375 0.14062,3.71875 0.14063,0.78125 0.53125,1.5 l -2.20312,0 q -0.32813,-0.65625 -0.42188,-1.53125 z m -0.17187,-4.71875 q -1.15625,0.46875 -3.45313,0.79688 -1.29687,0.1875 -1.84375,0.42187 -0.53125,0.23438 -0.82812,0.6875 -0.28125,0.45313 -0.28125,1 0,0.84375 0.625,1.40625 0.64062,0.5625 1.875,0.5625 1.21875,0 2.17187,-0.53125 0.95313,-0.53125 1.39063,-1.45312 0.34375,-0.71875 0.34375,-2.10938 l 0,-0.78125 z m 5.34765,6.25 0,-17.1875 2.10938,0 0,17.1875 -2.10938,0 z m 13.91016,-4.01562 2.17187,0.28125 q -0.51562,1.90625 -1.90625,2.96875 -1.39062,1.04687 -3.5625,1.04687 -2.73437,0 -4.34375,-1.67187 -1.59375,-1.6875 -1.59375,-4.73438 0,-3.14062 1.60938,-4.875 1.625,-1.73437 4.20312,-1.73437 2.5,0 4.07813,1.70312 1.59375,1.70313 1.59375,4.78125 0,0.1875 -0.0156,0.5625 l -9.28125,0 q 0.10938,2.04688 1.15625,3.14063 1.04688,1.09375 2.60938,1.09375 1.15625,0 1.96875,-0.60938 0.82812,-0.60937 1.3125,-1.95312 z m -6.9375,-3.40625 6.95312,0 q -0.14062,-1.5625 -0.79687,-2.35938 -1,-1.21875 -2.60938,-1.21875 -1.45312,0 -2.45312,0.98438 -0.98438,0.96875 -1.09375,2.59375 z" />
    <path
       style="fill:#000000;fill-opacity:0;fill-rule:nonzero;stroke:none;stroke-linecap:square;stroke-miterlimit:10"
       id="path41"
       d="M 352.28969,217.44545 86.777846,142.45332" />
    <path
       style="fill:none;fill-rule:evenodd;stroke:#000000;stroke-width:2;stroke-linecap:butt;stroke-linejoin:round;stroke-miterlimit:10"
       id="path43"
       d="M 352.28969,217.44545 98.326066,145.71504" />
    <path
       style="fill:#000000;fill-rule:evenodd;stroke:#000000;stroke-width:2;stroke-linecap:butt;stroke-miterlimit:10"
       id="path45"
       d="m 99.223976,142.53595 -9.63242,0.7121 7.83658,5.64608 z" />
    <path
       style="fill:#000000;fill-opacity:0;fill-rule:nonzero;stroke:none;stroke-linecap:square;stroke-miterlimit:10"
       id="path47"
       d="M 352.28969,217.44545 271.78572,142.45332" />
    <path
       style="fill:none;fill-rule:evenodd;stroke:#000000;stroke-width:2;stroke-linecap:butt;stroke-linejoin:round;stroke-miterlimit:10"
       id="path49"
       d="M 352.28969,217.44545 280.5663,150.63269" />
    <path
       style="fill:#000000;fill-rule:evenodd;stroke:#000000;stroke-width:2;stroke-linecap:butt;stroke-miterlimit:10"
       id="path51"
       d="m 282.81792,148.21552 -8.89282,-3.76929 4.38946,8.60366 z" />
    <path
       style="fill:#000000;fill-opacity:0;fill-rule:nonzero;stroke:none;stroke-linecap:square;stroke-miterlimit:10"
       id="path53"
       d="M 352.28969,217.44545 581.80147,142.45332" />
    <path
       style="fill:none;fill-rule:evenodd;stroke:#000000;stroke-width:2;stroke-linecap:butt;stroke-linejoin:round;stroke-miterlimit:10"
       id="path55"
       d="M 352.28969,217.44545 570.39491,146.18037" />
    <path
       style="fill:#000000;fill-rule:evenodd;stroke:#000000;stroke-width:2;stroke-linecap:butt;stroke-miterlimit:10"
       id="path57"
       d="m 571.42092,149.32047 7.60132,-5.95905 -9.65332,-0.32113 z" />
    <path
       style="fill:#000000;fill-opacity:0;fill-rule:nonzero;stroke:none;stroke-linecap:square;stroke-miterlimit:10"
       id="path59"
       d="m 395.78572,78.445443 83.02362,1.007874" />
    <path
       style="fill:none;fill-rule:nonzero;stroke:#000000;stroke-width:8;stroke-linecap:butt;stroke-linejoin:round;stroke-miterlimit:10;stroke-dasharray:8, 24"
       id="path61"
       d="m 395.78572,78.445443 83.02362,1.007874" />
    <path
       style="fill:#d5a6bd;fill-rule:nonzero;stroke:none;stroke-linecap:square;stroke-miterlimit:10"
       id="path63"
       d="m 251.78572,444.43758 201.00787,0 0,141.98425 -201.00787,0 z" />
    <path
       style="fill:none;fill-rule:nonzero;stroke:#000000;stroke-width:2;stroke-linecap:butt;stroke-linejoin:round;stroke-miterlimit:10"
       id="path65"
       d="m 251.78572,444.43758 201.00787,0 0,141.98425 -201.00787,0 z" />
    <path
       style="fill:#000000;fill-rule:nonzero;stroke:none;stroke-linecap:square;stroke-miterlimit:10"
       id="path67"
       d="m 300.18806,494.96971 0,-17.1875 2.28125,0 0,7.0625 8.92187,0 0,-7.0625 2.28125,0 0,17.1875 -2.28125,0 0,-8.09375 -8.92187,0 0,8.09375 -2.28125,0 z m 16.20703,-6.21875 q 0,-3.46875 1.92188,-5.125 1.60937,-1.39062 3.92187,-1.39062 2.5625,0 4.1875,1.6875 1.625,1.6875 1.625,4.64062 0,2.40625 -0.71875,3.78125 -0.71875,1.375 -2.09375,2.14063 -1.375,0.76562 -3,0.76562 -2.625,0 -4.23437,-1.67187 -1.60938,-1.6875 -1.60938,-4.82813 z m 2.17188,0 q 0,2.39063 1.03125,3.57813 1.04687,1.1875 2.64062,1.1875 1.5625,0 2.60938,-1.1875 1.04687,-1.20313 1.04687,-3.65625 0,-2.3125 -1.0625,-3.5 -1.04687,-1.1875 -2.59375,-1.1875 -1.59375,0 -2.64062,1.1875 -1.03125,1.1875 -1.03125,3.57812 z m 11.9414,6.21875 0,-12.45312 1.89063,0 0,1.89062 q 0.73437,-1.32812 1.34375,-1.75 0.625,-0.42187 1.35937,-0.42187 1.0625,0 2.17188,0.6875 l -0.73438,1.95312 q -0.76562,-0.45312 -1.54687,-0.45312 -0.6875,0 -1.25,0.42187 -0.54688,0.40625 -0.78125,1.14063 -0.34375,1.125 -0.34375,2.46875 l 0,6.51562 -2.10938,0 z m 8.02344,-14.75 0,-2.4375 2.10937,0 0,2.4375 -2.10937,0 z m 0,14.75 0,-12.45312 2.10937,0 0,12.45312 -2.10937,0 z m 4.20703,0 0,-1.71875 7.92188,-9.09375 q -1.34375,0.0781 -2.375,0.0781 l -5.07813,0 0,-1.71875 10.17188,0 0,1.40625 -6.73438,7.89062 -1.29687,1.4375 q 1.40625,-0.0937 2.65625,-0.0937 l 5.75,0 0,1.8125 -11.01563,0 z m 12.32813,-6.21875 q 0,-3.46875 1.92187,-5.125 1.60938,-1.39062 3.92188,-1.39062 2.5625,0 4.1875,1.6875 1.625,1.6875 1.625,4.64062 0,2.40625 -0.71875,3.78125 -0.71875,1.375 -2.09375,2.14063 -1.375,0.76562 -3,0.76562 -2.625,0 -4.23438,-1.67187 -1.60937,-1.6875 -1.60937,-4.82813 z m 2.17187,0 q 0,2.39063 1.03125,3.57813 1.04688,1.1875 2.64063,1.1875 1.5625,0 2.60937,-1.1875 1.04688,-1.20313 1.04688,-3.65625 0,-2.3125 -1.0625,-3.5 -1.04688,-1.1875 -2.59375,-1.1875 -1.59375,0 -2.64063,1.1875 -1.03125,1.1875 -1.03125,3.57812 z m 11.95703,6.21875 0,-12.45312 1.90625,0 0,1.78125 q 1.375,-2.0625 3.95313,-2.0625 1.125,0 2.0625,0.40625 0.95312,0.40625 1.42187,1.0625 0.46875,0.65625 0.65625,1.5625 0.125,0.57812 0.125,2.04687 l 0,7.65625 -2.10937,0 0,-7.57812 q 0,-1.28125 -0.25,-1.92188 -0.25,-0.64062 -0.875,-1.01562 -0.625,-0.39063 -1.46875,-0.39063 -1.34375,0 -2.32813,0.85938 -0.98437,0.85937 -0.98437,3.25 l 0,6.79687 -2.10938,0 z m 17.95703,-1.89062 0.3125,1.85937 q -0.89062,0.20313 -1.59375,0.20313 -1.15625,0 -1.79687,-0.35938 -0.625,-0.375 -0.89063,-0.96875 -0.25,-0.59375 -0.25,-2.48437 l 0,-7.17188 -1.54687,0 0,-1.64062 1.54687,0 0,-3.07813 2.09375,-1.26562 0,4.34375 2.125,0 0,1.64062 -2.125,0 0,7.28125 q 0,0.90625 0.10938,1.17188 0.125,0.25 0.375,0.40625 0.25,0.14062 0.71875,0.14062 0.34375,0 0.92187,-0.0781 z m 10.1836,0.35937 q -1.17188,0.98438 -2.26563,1.40625 -1.07812,0.40625 -2.3125,0.40625 -2.04687,0 -3.15625,-1 -1.09375,-1 -1.09375,-2.5625 0,-0.92187 0.40625,-1.67187 0.42188,-0.75 1.09375,-1.20313 0.67188,-0.46875 1.51563,-0.70312 0.625,-0.15625 1.875,-0.3125 2.5625,-0.3125 3.76562,-0.73438 0.0156,-0.42187 0.0156,-0.54687 0,-1.28125 -0.60938,-1.8125 -0.79687,-0.71875 -2.39062,-0.71875 -1.5,0 -2.20313,0.53125 -0.70312,0.51562 -1.04687,1.84375 l -2.0625,-0.28125 q 0.28125,-1.32813 0.92187,-2.14063 0.64063,-0.8125 1.85938,-1.25 1.21875,-0.45312 2.82812,-0.45312 1.59375,0 2.59375,0.375 1,0.375 1.46875,0.95312 0.46875,0.5625 0.65625,1.4375 0.0937,0.53125 0.0937,1.9375 l 0,2.8125 q 0,2.9375 0.14063,3.71875 0.14062,0.78125 0.53125,1.5 l -2.20313,0 q -0.32812,-0.65625 -0.42187,-1.53125 z m -0.17188,-4.71875 q -1.15625,0.46875 -3.45312,0.79688 -1.29688,0.1875 -1.84375,0.42187 -0.53125,0.23438 -0.82813,0.6875 -0.28125,0.45313 -0.28125,1 0,0.84375 0.625,1.40625 0.64063,0.5625 1.875,0.5625 1.21875,0 2.17188,-0.53125 0.95312,-0.53125 1.39062,-1.45312 0.34375,-0.71875 0.34375,-2.10938 l 0,-0.78125 z m 5.34766,6.25 0,-17.1875 2.10937,0 0,17.1875 -2.10937,0 z" />
    <path
       style="fill:#000000;fill-rule:nonzero;stroke:none;stroke-linecap:square;stroke-miterlimit:10"
       id="path69"
       d="m 332.79742,523.96968 0,-17.18747 6.46875,0 q 1.71875,0 2.625,0.17187 1.26563,0.20313 2.10938,0.79688 0.85937,0.59375 1.375,1.67187 0.53125,1.0625 0.53125,2.32813 0,2.20312 -1.40625,3.71875 -1.39063,1.51562 -5.03125,1.51562 l -4.40625,0 0,6.98435 -2.26563,0 z m 2.26563,-9.01559 4.4375,0 q 2.20312,0 3.125,-0.8125 0.9375,-0.82813 0.9375,-2.3125 0,-1.07813 -0.54688,-1.84375 -0.54687,-0.76563 -1.4375,-1.01563 -0.57812,-0.15625 -2.125,-0.15625 l -4.39062,0 0,6.14063 z m 12.67968,2.79687 q 0,-3.46875 1.92188,-5.125 1.60937,-1.39062 3.92187,-1.39062 2.5625,0 4.1875,1.6875 1.625,1.6875 1.625,4.64062 0,2.40622 -0.71875,3.78122 -0.71875,1.375 -2.09375,2.14062 -1.375,0.76563 -3,0.76563 -2.625,0 -4.23437,-1.67188 -1.60938,-1.6875 -1.60938,-4.82809 z m 2.17188,0 q 0,2.39059 1.03125,3.57809 1.04687,1.1875 2.64062,1.1875 1.5625,0 2.60938,-1.1875 1.04687,-1.20312 1.04687,-3.65621 0,-2.3125 -1.0625,-3.5 -1.04687,-1.1875 -2.59375,-1.1875 -1.59375,0 -2.64062,1.1875 -1.03125,1.1875 -1.03125,3.57812 z m 20.03515,6.21872 0,-1.57813 q -1.1875,1.85938 -3.48437,1.85938 -1.48438,0 -2.73438,-0.8125 -1.25,-0.82813 -1.9375,-2.29688 -0.67187,-1.46875 -0.67187,-3.39059 0,-1.85937 0.60937,-3.375 0.625,-1.51562 1.85938,-2.32812 1.25,-0.8125 2.78125,-0.8125 1.125,0 2,0.48437 0.89062,0.46875 1.4375,1.23438 l 0,-6.17188 2.09375,0 0,17.18747 -1.95313,0 z m -6.67187,-6.21872 q 0,2.39059 1,3.57809 1.01562,1.1875 2.39062,1.1875 1.39063,0 2.34375,-1.125 0.96875,-1.14062 0.96875,-3.45309 0,-2.5625 -0.98437,-3.75 -0.98438,-1.20312 -2.42188,-1.20312 -1.40625,0 -2.35937,1.15625 -0.9375,1.14062 -0.9375,3.60937 z" />
    <path
       style="fill:#000000;fill-rule:nonzero;stroke:none;stroke-linecap:square;stroke-miterlimit:10"
       id="path71"
       d="m 295.56306,552.96968 6.59375,-17.1875 2.45312,0 7.03125,17.1875 -2.59375,0 -2,-5.20313 -7.1875,0 -1.89062,5.20313 -2.40625,0 z m 4.95312,-7.0625 5.82813,0 -1.79688,-4.75 q -0.8125,-2.17188 -1.21875,-3.5625 -0.32812,1.65625 -0.92187,3.28125 l -1.89063,5.03125 z m 20.82032,7.0625 0,-1.82813 q -1.45313,2.10938 -3.9375,2.10938 -1.10938,0 -2.0625,-0.42188 -0.95313,-0.42187 -1.42188,-1.0625 -0.45312,-0.64062 -0.64062,-1.5625 -0.14063,-0.625 -0.14063,-1.96875 l 0,-7.71875 2.10938,0 0,6.90625 q 0,1.65625 0.14062,2.23438 0.1875,0.82812 0.82813,1.3125 0.65625,0.46875 1.60937,0.46875 0.9375,0 1.76563,-0.48438 0.84375,-0.5 1.1875,-1.32812 0.34375,-0.84375 0.34375,-2.4375 l 0,-6.67188 2.10937,0 0,12.45313 -1.89062,0 z m 9.80078,-1.89063 0.3125,1.85938 q -0.89063,0.20312 -1.59375,0.20312 -1.15625,0 -1.79688,-0.35937 -0.625,-0.375 -0.89062,-0.96875 -0.25,-0.59375 -0.25,-2.48438 l 0,-7.17187 -1.54688,0 0,-1.64063 1.54688,0 0,-3.07812 2.09375,-1.26563 0,4.34375 2.125,0 0,1.64063 -2.125,0 0,7.28125 q 0,0.90625 0.10937,1.17187 0.125,0.25 0.375,0.40625 0.25,0.14063 0.71875,0.14063 0.34375,0 0.92188,-0.0781 z m 1.27734,-4.32812 q 0,-3.46875 1.92188,-5.125 1.60937,-1.39063 3.92187,-1.39063 2.5625,0 4.1875,1.6875 1.625,1.6875 1.625,4.64063 0,2.40625 -0.71875,3.78125 -0.71875,1.375 -2.09375,2.14062 -1.375,0.76563 -3,0.76563 -2.625,0 -4.23437,-1.67188 -1.60938,-1.6875 -1.60938,-4.82812 z m 2.17188,0 q 0,2.39062 1.03125,3.57812 1.04687,1.1875 2.64062,1.1875 1.5625,0 2.60938,-1.1875 1.04687,-1.20312 1.04687,-3.65625 0,-2.3125 -1.0625,-3.5 -1.04687,-1.1875 -2.59375,-1.1875 -1.59375,0 -2.64062,1.1875 -1.03125,1.1875 -1.03125,3.57813 z m 11.11328,2.5 2.09375,-0.32813 q 0.17187,1.25 0.96875,1.92188 0.8125,0.67187 2.25,0.67187 1.45312,0 2.15625,-0.59375 0.70312,-0.59375 0.70312,-1.39062 0,-0.71875 -0.625,-1.125 -0.42187,-0.28125 -2.15625,-0.71875 -2.3125,-0.57813 -3.21875,-1 -0.89062,-0.4375 -1.35937,-1.1875 -0.45313,-0.76563 -0.45313,-1.67188 0,-0.82812 0.375,-1.53125 0.39063,-0.71875 1.04688,-1.1875 0.48437,-0.35937 1.32812,-0.60937 0.85938,-0.26563 1.82813,-0.26563 1.46875,0 2.57812,0.42188 1.10938,0.42187 1.625,1.15625 0.53125,0.71875 0.73438,1.92187 l -2.0625,0.28125 q -0.14063,-0.96875 -0.8125,-1.5 -0.67188,-0.54687 -1.90625,-0.54687 -1.45313,0 -2.07813,0.48437 -0.625,0.48438 -0.625,1.125 0,0.40625 0.26563,0.73438 0.25,0.34375 0.8125,0.5625 0.3125,0.125 1.85937,0.54687 2.23438,0.59375 3.10938,0.98438 0.89062,0.375 1.39062,1.10937 0.51563,0.71875 0.51563,1.79688 0,1.04687 -0.625,1.98437 -0.60938,0.9375 -1.76563,1.45313 -1.15625,0.5 -2.625,0.5 -2.42187,0 -3.70312,-1 -1.26563,-1.01563 -1.625,-3 z m 20.96875,-0.84375 2.07812,0.26562 q -0.34375,2.15625 -1.75,3.375 -1.39062,1.20313 -3.4375,1.20313 -2.54687,0 -4.10937,-1.67188 -1.54688,-1.67187 -1.54688,-4.78125 0,-2.01562 0.67188,-3.53125 0.67187,-1.51562 2.03125,-2.26562 1.35937,-0.76563 2.96875,-0.76563 2.03125,0 3.3125,1.03125 1.29687,1.03125 1.65625,2.90625 l -2.04688,0.32813 q -0.29687,-1.26563 -1.04687,-1.89063 -0.73438,-0.64062 -1.79688,-0.64062 -1.59375,0 -2.59375,1.15625 -0.98437,1.14062 -0.98437,3.60937 0,2.5 0.95312,3.64063 0.96875,1.14062 2.51563,1.14062 1.23437,0 2.0625,-0.76562 0.84375,-0.76563 1.0625,-2.34375 z m 12,3.03125 q -1.17188,0.98437 -2.26563,1.40625 -1.07812,0.40625 -2.3125,0.40625 -2.04687,0 -3.15625,-1 -1.09375,-1 -1.09375,-2.5625 0,-0.92188 0.40625,-1.67188 0.42188,-0.75 1.09375,-1.20312 0.67188,-0.46875 1.51563,-0.70313 0.625,-0.15625 1.875,-0.3125 2.5625,-0.3125 3.76562,-0.73437 0.0156,-0.42188 0.0156,-0.54688 0,-1.28125 -0.60938,-1.8125 -0.79687,-0.71875 -2.39062,-0.71875 -1.5,0 -2.20313,0.53125 -0.70312,0.51563 -1.04687,1.84375 l -2.0625,-0.28125 q 0.28125,-1.32812 0.92187,-2.14062 0.64063,-0.8125 1.85938,-1.25 1.21875,-0.45313 2.82812,-0.45313 1.59375,0 2.59375,0.375 1,0.375 1.46875,0.95313 0.46875,0.5625 0.65625,1.4375 0.0937,0.53125 0.0937,1.9375 l 0,2.8125 q 0,2.9375 0.14063,3.71875 0.14062,0.78125 0.53125,1.5 l -2.20313,0 q -0.32812,-0.65625 -0.42187,-1.53125 z m -0.17188,-4.71875 q -1.15625,0.46875 -3.45312,0.79687 -1.29688,0.1875 -1.84375,0.42188 -0.53125,0.23437 -0.82813,0.6875 -0.28125,0.45312 -0.28125,1 0,0.84375 0.625,1.40625 0.64063,0.5625 1.875,0.5625 1.21875,0 2.17188,-0.53125 0.95312,-0.53125 1.39062,-1.45313 0.34375,-0.71875 0.34375,-2.10937 l 0,-0.78125 z m 5.34766,6.25 0,-17.1875 2.10937,0 0,17.1875 -2.10937,0 z m 13.91016,-4.01563 2.17187,0.28125 q -0.51562,1.90625 -1.90625,2.96875 -1.39062,1.04688 -3.5625,1.04688 -2.73437,0 -4.34375,-1.67188 -1.59375,-1.6875 -1.59375,-4.73437 0,-3.14063 1.60938,-4.875 1.625,-1.73438 4.20312,-1.73438 2.5,0 4.07813,1.70313 1.59375,1.70312 1.59375,4.78125 0,0.1875 -0.0156,0.5625 l -9.28125,0 q 0.10938,2.04687 1.15625,3.14062 1.04688,1.09375 2.60938,1.09375 1.15625,0 1.96875,-0.60937 0.82812,-0.60938 1.3125,-1.95313 z m -6.9375,-3.40625 6.95312,0 q -0.14062,-1.5625 -0.79687,-2.35937 -1,-1.21875 -2.60938,-1.21875 -1.45312,0 -2.45312,0.98437 -0.98438,0.96875 -1.09375,2.59375 z m 11.73828,7.42188 0,-12.45313 1.89062,0 0,1.89063 q 0.73438,-1.32813 1.34375,-1.75 0.625,-0.42188 1.35938,-0.42188 1.0625,0 2.17187,0.6875 l -0.73437,1.95313 q -0.76563,-0.45313 -1.54688,-0.45313 -0.6875,0 -1.25,0.42188 -0.54687,0.40625 -0.78125,1.14062 -0.34375,1.125 -0.34375,2.46875 l 0,6.51563 -2.10937,0 z" />
    <path
       style="fill:#000000;fill-opacity:0;fill-rule:nonzero;stroke:none;stroke-linecap:square;stroke-miterlimit:10"
       id="path73"
       d="m 352.28969,444.43758 0,-88" />
    <path
       style="fill:none;fill-rule:evenodd;stroke:#000000;stroke-width:2;stroke-linecap:butt;stroke-linejoin:round;stroke-miterlimit:10"
       id="path75"
       d="m 352.28969,444.43758 0,-76" />
    <path
       style="fill:#000000;fill-rule:evenodd;stroke:#000000;stroke-width:2;stroke-linecap:butt;stroke-miterlimit:10"
       id="path77"
       d="m 355.59312,368.43758 -3.30341,-9.0762 -3.30346,9.0762 z" />
  </g>
</svg>
